<?xml version="1.0" encoding="UTF-8"?>
<svg id="Layer_10" data-name="Layer 10" xmlns="http://www.w3.org/2000/svg" viewBox="0 0 298.63 310">
  <defs>
    <style>
      .cls-1 {
        fill: #fff;
      }
    </style>
  </defs>
  <path class="cls-1" d="M298.42,109.08c1.13-10.95-2.47-22.94-9.87-32.89-5.87-7.89-13.48-13.83-21.88-17.23-.95-6.45-3.22-12.64-6.42-17.26-3.77-5.43-9.13-9.99-15.95-13.57-9.7-5.09-21.44-6.77-34.9-5-1.02.13-2.03.31-3.02.49-1.18-2.14-2.54-4.26-4.11-6.34l-.4-.53c-3.93-5.21-8.82-11.68-16.35-14.68-5.53-2.2-11.19-2.67-16.4-1.36-6.98,1.75-13.41,7.32-19.12,16.55-.72,1.16-1.46,2.33-2.2,3.51-1.6-.98-3.17-1.98-4.7-2.98-8.58-8.2-19.34-16.27-37.73-11.55-9.83,2.52-17.4,9.79-21.32,20.46-1.31,3.55-2.18,7.47-2.63,11.54-10.78-.99-22.22-.92-33.1,4.06l-.2.1c-11.32,5.55-17.96,16.89-16.52,28.2l.04.3c1.36,8.31,5.6,15.49,9.35,21.84-6.34,3.25-12.43,6.72-18.32,10.14-4.3,2.5-9.66,5.61-14.12,10.16C3.02,118.72-.03,125.62,0,132.48c.04,11.22,7.67,18.77,13.24,24.28l.48.47c.77.76,1.48,1.48,2.18,2.17-.51.65-1.02,1.3-1.51,1.96-1.58,2.15-3.85,5.44-5.46,9.3-2.23,5.17-2.8,11.02-1.7,17.39l.04.19c4.51,22.93,13.64,44.96,26.39,63.71,9.88,14.52,31.28,35.58,49.7,34.08,4.24-.34,7.79-1.45,10.81-2.99,5.69,7.29,12.87,13.75,21.26,18.84,6.91,4.2,17.17,8.11,27.14,8.11,3.36,0,6.69-.44,9.84-1.47,12.18-3.97,18.4-18.63,24.09-33.53,6.75,8.69,17.15,20.61,34.76,20.61,2.98,0,6.16-.34,9.57-1.09,9.68-2.14,17.55-8.38,22.76-18.04,2.46-4.56,4.18-9.63,5.25-14.74,2.78.11,5.63,0,8.51-.49,5.87-.99,11.11-3.58,16.03-7.91,3.98-3.51,7.28-7.78,10.24-11.87,13.89-19.16,17.57-43.09,9.6-62.47-4.18-10.17-10.77-17.46-18.47-23.06.54-7.2,3.73-13.39,10.09-20.25,5.25-5.72,12.37-14.71,13.6-26.6ZM235.51,88.15c-1.15.42-2.71.86-4.56,1.25-.03-1.82.08-3.82.3-6.36.27-3.25,3.37-8.08,5.11-9.29,3.66-2.5,7.72-2.64,13.12-1.73-1.3,5.76-4.84,12.64-13.97,16.12h0ZM233.33,155.1c1.02.38,2.03.76,3.03,1.14,7.71,2.89,15.23,5.71,21.82,9.31.16,1.16.35,2.33.58,3.51,1.3,6.69-.36,13.86-4.32,18.71-1.82,2.22-4.9,4.88-9.26,4.92-.08,0-.15,0-.22,0-10.16,0-20.63-5.71-29.62-13.66,6.28-6.54,12.97-14.55,18-23.93ZM203.73,166.55c-2.04-2.65-3.9-5.36-5.52-8.03-2.3-3.79-3.21-8.06-3.22-12.64,7.77.52,15.21,1.55,22.06,3.38-3.29,5.59-7.72,11.32-13.33,17.28ZM210.8,77.65v-.07c1.76-10.84,3.91-24.22,1.38-37.65,9.67-1.19,17.82-.09,24.23,3.27,4.37,2.29,7.69,5.05,9.88,8.21.64.93,1.23,2.04,1.74,3.26-6.81-.63-14.13.16-21.29,5.07-6.3,4.34-11.77,13.97-12.43,21.89-.23,2.75-.4,5.4-.35,8.15-1.71-.35-3.4-.79-5.05-1.33.67-3.63,1.29-7.23,1.89-10.79ZM201.22,118.14c.51-1.55,1.01-3.09,1.49-4.61.94-2.82,1.77-5.64,2.52-8.44.65.19,1.3.37,1.96.55,1.81.48,3.67.87,5.56,1.18,1.81.29,3.62.48,5.41.57.63,1.38,1.3,2.74,1.96,4.09,1.88,3.84,4.01,8.2,4.17,10.96.21,3.65-.06,7.3-.84,10.96-8.13-2.37-16.75-3.69-25.63-4.37,1.02-3.62,2.22-7.27,3.4-10.9ZM164.47,26.22c3.67-5.93,6.96-8.55,8.81-9.01,1.7-.42,3.82-.19,5.98.67,3.11,1.24,6.27,5.43,9.06,9.12l.41.54c.21.28.42.57.62.86-3.54,1.06-6.98,1.94-10.46,2.26-5.33.39-10.61-.58-15.73-2.35.44-.7.88-1.39,1.31-2.09ZM109.63,22.71c8.76-2.25,13.55-.56,22.26,7.86l.56.54.65.43c1.8,1.19,3.68,2.4,5.65,3.6-1.76,2.89-3.47,5.83-5.08,8.83-6.87-2.24-14.26-3.45-24.05-3.25-4.85-.01-8.14-.21-11.39-.54,1.11-10.24,6.59-16.24,11.41-17.48ZM106.41,118.9c6.48-5.78,12-11.6,16.65-17.57,3.7,4.23,4.93,11.53,3.75,22.32-.21,1.95-.48,3.9-.78,5.84-5.39-.12-10.58-.44-15.54-1.05-.68-.09-1.39-.33-2.1-.72-2.21-1.2-4.08-3.21-5.64-5.62,1.19-1.03,2.41-2.08,3.67-3.2ZM96.29,105.13c-.46-1.99-.81-3.74-1.07-5.04-.4-2.03-.72-4.08-.99-6.18,1.1-.05,2.19-.08,3.28-.08,3.15,0,6.21.23,9.19.66-3.06,3.56-6.52,7.1-10.4,10.64ZM95.52,71.74c1.64-3.99,3.58-8.73,3.7-14.4,3.59.31,7.19.48,10.75.37h0c6.62-.14,11.62.45,16.39,1.78-.41.94-.81,1.89-1.22,2.82-2.49,5.78-4.84,11.25-7.62,16.51-.09.17-.19.34-.28.51-1.19-.32-2.42-.62-3.7-.88-6.39-1.32-13.05-1.82-19.94-1.51.45-1.62,1.14-3.33,1.91-5.19ZM88.01,139.4c.75-1.84,1.63-3.48,2.64-5.01,2.63,3.34,5.79,6.19,9.63,8.27,2.58,1.4,5.31,2.29,8.1,2.64,4.54.56,9.24.9,14.05,1.07-.89,3.24-1.88,6.47-3,9.66-3.23,9.26-7.35,18.2-12.3,26.72-1.05-.06-2.09-.14-3.11-.3-2.79-1.07-5.61-2.2-7.96-3.58-12.19-7.14-13.66-25.68-8.05-39.48ZM55.53,57.72c7.92-3.59,16.97-3.34,26.59-2.32.46,2.91-.54,5.55-2.32,9.87-1.58,3.85-3.5,8.54-3.67,14.08-3.74.85-7.54,1.91-11.39,3.2-2.79.93-5.53,1.95-8.22,3.04-.28-.47-.55-.94-.83-1.4-3.26-5.51-6.35-10.72-7.24-15.86-.48-4.42,3.16-8.66,7.07-10.61ZM20.71,124.95c2.85-2.91,6.93-5.28,10.52-7.36,5.46-3.17,11.1-6.39,16.91-9.39.18.95.29,1.9.3,2.84v.12c.09,2.98-1.15,6.97-3.38,10.93l-.05.1c-4.7,8.59-11.24,16.12-18.16,24.08-.01.01-.02.03-.04.04-.37-.37-.75-.74-1.14-1.14l-.49-.48c-4.94-4.89-8.19-8.39-8.2-12.26,0-2.32,1.35-5.05,3.72-7.46ZM81.97,269.1c-.18.01-.36.02-.55.02-7.45,0-23.11-11.13-33.72-26.72-11.46-16.84-19.67-36.66-23.75-57.32-.35-2.11-.53-5.13.59-7.71l.06-.13c.69-1.67,1.8-3.52,3.45-5.77.08-.11.17-.22.26-.33,1.26,1.09,2.65,2.27,4.21,3.57,2.36,1.97,4.93,3.71,7.4,5.39,6.83,4.64,11.04,7.79,11.83,12.44.26,1.5.04,3.56-.18,5.74-.05.46-.1.92-.14,1.38-1.03,10.66-1.08,22.64,6.31,30.68,5.12,5.57,13.12,7.91,21.98,6.59-1.09,10.57.94,21.4,5.53,31.48-.98.36-2.05.59-3.27.69ZM88.35,210.9c-1.25,2.3-2.37,4.56-3.35,6.8-1.85.74-3.63,1.42-5.36,1.91-4.07,1.15-7.93.84-9.4-.76-3.26-3.54-2.24-14.08-1.9-17.54.04-.42.08-.84.13-1.26.32-3.08.68-6.56.03-10.37-2.08-12.1-11.48-18.49-19.03-23.62-2.24-1.52-4.35-2.96-6.08-4.39-1.6-1.33-2.99-2.52-4.25-3.61.19-.21.37-.42.55-.64,7.2-8.28,14.64-16.84,20.22-27.03,2.65-4.71,5.74-11.92,5.54-19.64-.06-3.44-.66-6.68-1.6-9.75,2.08-.82,4.18-1.6,6.3-2.31,2.46-.82,4.89-1.54,7.29-2.15.3,2.31.67,4.59,1.12,6.89.92,4.64,2.08,9.61,3.69,14.45-3.88,4.07-7.41,8.83-9.98,15.15-8.22,20.22-5.69,48.32,15.21,60.55,3.18,1.86,6.5,3.24,9.57,4.43-.13.17-.25.34-.38.52-2.85,3.83-5.8,7.79-8.3,12.39ZM228.62,268.4c-2.87,5.33-6.63,8.44-11.48,9.52-13.52,3-20.13-4.07-28.66-15.19-1.58-2.06-3.1-4.04-4.68-5.8,1.56-3.22,3.15-5.87,4.75-7.38,4.78-4.53,9.6-3.41,23.71,2.82,5.95,2.62,12.62,5.56,19.69,7.04-.73,3.08-1.81,6.17-3.34,9ZM219.12,236.81c-12.72-5.61-28.56-12.59-42.26.4-2.33,2.21-4.35,5.01-6.19,8.2-6.28-4.58-14.17-8.76-23.43-9.28-3.7-.21-7.17-.28-10.48-.16-1.92,6.85-3.6,12.84-4.91,17.54,4.01-.65,8.65-.74,14.43-.41,6.38.36,12.26,4.17,17.21,8.24-.59,1.52-1.17,3.07-1.76,4.62-3.72,9.83-9.35,24.69-14.6,26.4-5.53,1.8-15.16-.3-22.9-5-6.94-4.21-12.86-9.7-17.43-15.85.41-.54.81-1.07,1.19-1.59,1.56-2.08,3.02-4.05,4.56-5.58,1.48-1.48,2.9-2.76,4.3-3.92.63-2.6,2.63-10.78,5.41-22.13-7.37,2.32-14.3,6.62-21.72,14.02-.81.81-1.55,1.63-2.27,2.46-1.74-5.83-2.31-11.78-1.5-17.48.3-2.13.78-4.3,1.45-6.51,1.19-.4,2.36-.74,3.51-.97,5.04-1.01,10.78-.49,16.85.06,1.69.15,3.44.31,5.17.43.15.01.3.02.46.04,1.27-5.19,2.65-10.81,4.1-16.72-1.17-.09-2.24-.18-3.18-.26h-.12c-1.58-.12-3.19-.27-4.89-.42-3.92-.35-8.14-.72-12.49-.69.86-1.19,1.75-2.39,2.65-3.61,1.39-1.87,2.83-3.8,4.23-5.83.77-1.11,1.52-2.23,2.26-3.36,2.59-.24,5.15-.56,7.68-.88,2.7-.34,5.26-.66,7.77-.87,1.39-5.67,2.81-11.47,4.24-17.29-1.65.05-3.31.14-4.96.29-1.41.11-2.81.25-4.2.4,3.13-6.32,5.87-12.83,8.19-19.48,1.75-5,3.23-10.07,4.49-15.18,1.61-.03,3.23-.08,4.84-.13,1.49-6.07,2.9-11.83,4.19-17.12-1.94.06-3.87.12-5.78.18.17-1.29.34-2.59.48-3.89,1.12-10.21,1.49-25.01-8.14-35.69-.95-1.05-1.97-2.03-3.07-2.95.02-.04.04-.07.06-.1,3.1-5.87,5.7-11.9,8.21-17.74.42-.99.84-1.96,1.26-2.93,1.37.69,2.81,1.43,4.34,2.21l.19.1c6.77,3.47,12.41,7.68,18.55,12.49.11.09.23.18.34.27.21.16.41.32.61.48.55.43,1.1.86,1.67,1.31h0c1.15.91,2.33,1.84,3.53,2.77.05-.13.1-.27.14-.41.05-.13.09-.27.14-.41.07-.22.14-.44.22-.66.04-.13.09-.27.13-.4.08-.25.16-.5.24-.76.03-.11.07-.22.1-.34.09-.3.18-.6.27-.9.02-.06.04-.13.05-.19.56-1.95,1.12-4.09,1.68-6.21.37-1.4.72-2.73,1.04-3.98.29-1.09.61-2.3.91-3.47-6.85-5.37-13.52-10.43-21.89-14.71l-.19-.1c-1.64-.84-3.22-1.65-4.76-2.42,1.44-2.62,2.98-5.23,4.58-7.82,4.32,1.75,8.85,3.15,13.55,3.98,2.17-2.95,5.06-4.9,9.17-4.9,1.22,0,2.52.18,3.89.54,2.89.76,5.11,2.09,6.67,3.96,2.95-.63,5.77-1.44,8.52-2.29,1.45,9.12.17,19.24-1.66,30.61-.32,1.91-.65,3.82-.99,5.75-2.54-1.65-4.92-3.35-7.1-4.98-.02.1-.05.19-.07.28v.05c-1.73,6.55-3.81,12.11-5.7,16.45,2.86,2,5.95,4,9.26,5.87-.83,3.34-1.77,6.67-2.87,9.95l-.04.12c-.48,1.5-.97,3.01-1.47,4.54-1.6,4.89-3.31,10.14-4.65,15.56-4.52,0-9.06.08-13.6.2-1.46,5.19-3.08,10.98-4.8,17.15,5.35-.18,10.71-.32,16.01-.35-.07,7.46,1.42,14.91,5.66,21.9,2.36,3.9,5.12,7.78,8.12,11.5-1.68,1.8-3.32,3.58-4.94,5.34-2.4,2.61-4.71,5.13-7.02,7.54-5.43-3.33-10.86-6.27-16.05-7.78-3.88-1.15-7.8-2.01-11.73-2.61-1.55,5.54-3.1,11.09-4.63,16.54,3.88.47,7.75,1.25,11.59,2.38,2.28.66,4.97,1.95,7.82,3.54-2.79,2.2-5.74,4.28-8.99,6.21-4.02,2.4-9.44,3.45-14.89,3.83-1.69,6.03-3.3,11.8-4.8,17.16,10.28-.03,20.19-1.5,28.4-6.4,5.84-3.49,10.86-7.3,15.45-11.33,3.46,2.2,6.76,4.2,9.9,5.72,4.07,2.04,8.93,3.33,14.08,4.69,13.05,3.46,22.55,6.61,25.99,15.65.28.73.52,1.68.72,2.78-4.48-1.27-9.09-3.3-13.59-5.28ZM275.47,181.33c.75,1.3,1.43,2.67,2.02,4.12,5.75,13.97,2.82,31.6-7.64,46.02-5.58,7.7-9.68,12.05-15.34,13.01-1.41.24-2.89.31-4.41.28-.28-4.4-1.05-8.37-2.24-11.5-6.81-17.88-24.56-22.59-37.52-26.02-4.3-1.14-8.35-2.22-10.86-3.48l-.12-.06c-1.49-.72-3.15-1.66-4.91-2.72,1.64-1.75,3.27-3.53,4.92-5.32,1.35-1.47,2.73-2.96,4.12-4.46,1.47,1.32,2.95,2.59,4.44,3.78,12.09,9.63,24.88,14.71,37.01,14.71.12,0,.24,0,.36,0,8.54-.07,16.46-4.03,22.28-11.16,4-4.89,6.68-10.85,7.88-17.19ZM281.52,107.34c-.54,5.24-3.47,10.59-9.18,16.82-6.89,7.41-11.27,14.86-13.33,22.86-5.55-2.52-11.22-4.65-16.7-6.7-.94-.35-1.86-.7-2.77-1.04,1.41-5.6,2.07-11.55,1.7-17.84-.33-5.55-2.73-10.95-5.08-15.82,2.18-.53,4.02-1.09,5.4-1.6,12.38-4.72,20.85-14.22,24.12-26.47,10.04,6.54,16.99,18.68,15.84,29.79Z"/>
  <path class="cls-1" d="M179.74,45.51c-7.54-1.98-10.92,2.81-13.98,12.32,1.78,1.16,3.47,2.33,4.91,3.37,1.47-3.26,3.17-4.55,5.96-3.82,5.12,1.34,3.7,6.78.54,18.83-3.16,12.05-4.59,17.49-9.71,16.14-3.52-.92-3.95-3.79-2.84-9.41-1.19-.99-2.68-2.14-4.3-3.33-1.32,7.85-1.44,13.8-1.4,16.65.02,1,.21,2.03.5,3.07,0,.01-.08.34-.08.35-.7,3.21-38.91,158.87-39.7,162.27,0,.04-.01.08-.01.12l.27,8.28c.02.74,1.25,1.07,1.64.43l4.29-7.09s.04-.07.05-.11c.98-3.34,44.11-157.73,45.08-160.86,0,0,.09-.33.1-.34.74-.75,1.41-1.54,1.91-2.38,1.99-3.39,6.65-12.17,9.97-24.84,4.48-17.1,7.07-26.96-3.18-29.65Z"/>
</svg>