<svg width="324" height="676" viewBox="0 0 324 676" fill="none" xmlns="http://www.w3.org/2000/svg">
<path d="M472.047 631.743C285.594 661.933 261.823 658.16 188.64 594.95C123.302 538.516 134.656 155.991 188.639 92.1017C243.643 27.0049 312.164 -0.825819 472.047 54.8359" stroke="#AF1E2D" stroke-width="50"/>
<path d="M436.825 35.6874L432.759 50.1072L427.444 48.6087C426.428 48.3221 425.582 47.8627 424.907 47.2305C424.232 46.5982 423.779 45.8534 423.549 44.9959C423.304 44.1345 423.321 43.2098 423.599 42.2216C423.878 41.2335 424.347 40.4361 425.005 39.8294C425.65 39.2187 426.425 38.8201 427.331 38.6336C428.233 38.4613 429.192 38.5184 430.209 38.8049L433.321 39.6825L432.575 42.3294L429.738 41.5294C428.919 41.2985 428.216 41.306 427.628 41.5518C427.037 41.8118 426.64 42.3017 426.437 43.0216C426.226 43.7698 426.307 44.4021 426.679 44.9186C427.052 45.435 427.647 45.8087 428.466 46.0395L431.324 46.8455L430.558 47.2924L434.051 34.9053L436.825 35.6874ZM429.16 33.5262L430.67 40.3294L427.621 39.4697L426.132 32.6725L429.16 33.5262ZM420.304 37.482L419.612 40.1436L413.692 38.6052L414.384 35.9436L420.304 37.482ZM418.829 43.418L417.658 44.2502L420.58 33.0077L421.326 34.2472L414.023 32.3491L414.714 29.6876L423.806 32.0505L420.038 46.5508L410.946 44.1879L411.632 41.5476L418.829 43.418ZM405.678 27.3052C407.179 27.6506 408.413 28.2731 409.379 29.1728C410.329 30.0835 410.981 31.1741 411.336 32.4447C411.673 33.7263 411.674 35.096 411.338 36.5539C411.085 37.6545 410.675 38.6211 410.107 39.4536C409.521 40.2972 408.823 40.9792 408.011 41.4997C407.184 42.0169 406.278 42.3578 405.292 42.5222C404.306 42.6866 403.277 42.6455 402.205 42.3989C400.504 42.0075 399.195 41.3224 398.276 40.3435C397.357 39.3646 396.74 38.1541 396.425 36.712L399.258 36.3705C399.589 37.3498 400.05 38.0954 400.639 38.6073C401.229 39.1192 401.96 39.4754 402.832 39.676C403.704 39.8766 404.53 39.8486 405.312 39.592C406.076 39.3463 406.741 38.9051 407.309 38.2682C407.86 37.6423 408.245 36.8506 408.465 35.8929C408.682 34.9496 408.682 34.069 408.464 33.2513C408.231 32.4302 407.827 31.7352 407.25 31.1661C406.656 30.6081 405.923 30.2287 405.052 30.0281C404.18 29.8275 403.367 29.8286 402.613 30.0313C401.859 30.2341 401.119 30.7034 400.392 31.4393L397.994 29.8942C398.908 28.7349 399.992 27.9158 401.246 27.4367C402.5 26.9577 403.977 26.9139 405.678 27.3052ZM393.656 31.2077L393.113 33.9036L387.117 32.6959L387.66 30.0001L393.656 31.2077ZM392.513 37.2164L391.39 38.1122L393.683 26.725L394.497 27.9212L387.1 26.4312L387.643 23.7353L396.852 25.5903L393.893 40.2773L384.684 38.4223L385.223 35.748L392.513 37.2164ZM374.855 21.5427L381.478 34.3948L380.114 34.5441L382.1 22.7644L384.942 23.2436L382.451 38.0171L379.913 37.5891L373.441 25.0302L374.573 25.0649L372.667 36.3673L369.825 35.8882L372.317 21.1147L374.855 21.5427ZM365.859 20.2241L364.16 33.5361L361.279 33.1683L362.978 19.8564L365.859 20.2241ZM368.784 32.9288L368.435 35.6566L356.477 34.1299L356.825 31.402L368.784 32.9288ZM347.469 18.2385L356.407 19.0728L355.014 33.99L352.145 33.7221L353.365 20.6449L353.917 21.6023L347.214 20.9766L347.469 18.2385ZM341.002 24.8106L342.495 24.8917L337.969 32.776L334.828 32.6055L340.696 22.723L340.333 24.554L340.693 17.9197L343.57 18.0759L343.21 24.7102L343.091 22.853L347.811 33.3102L344.626 33.1373L341.002 24.8106ZM298.302 19.4896L300.741 34.2717L295.293 35.1707C294.251 35.3427 293.29 35.2856 292.41 34.9997C291.531 34.7138 290.805 34.2316 290.232 33.5531C289.645 32.877 289.267 32.0325 289.1 31.0196C288.933 30.0066 289.019 29.0856 289.358 28.2567C289.682 27.4302 290.215 26.7403 290.956 26.1869C291.7 25.648 292.592 25.2926 293.634 25.1206L296.825 24.5941L297.273 27.3074L294.364 27.7874C293.525 27.9259 292.891 28.2311 292.464 28.703C292.039 29.1894 291.887 29.8016 292.009 30.5396C292.135 31.3065 292.477 31.8448 293.033 32.1543C293.59 32.4638 294.288 32.5493 295.127 32.4108L298.058 31.9273L297.554 32.6571L295.458 19.9588L298.302 19.4896ZM290.444 20.7862L294.699 26.305L291.574 26.8208L287.34 21.2984L290.444 20.7862ZM284.076 28.3269L284.724 30.9994L278.78 32.4408L278.132 29.7683L284.076 28.3269ZM285.582 34.2551L284.943 35.5418L282.205 24.253L283.449 24.9928L276.115 26.7712L275.467 24.0987L284.597 21.8848L288.127 36.4448L278.998 38.6587L278.355 36.0075L285.582 34.2551ZM266.089 26.8444C267.549 26.3548 268.927 26.2411 270.221 26.5032C271.506 26.7839 272.632 27.3733 273.598 28.2714C274.555 29.1881 275.272 30.3556 275.747 31.774C276.106 32.8448 276.261 33.8834 276.212 34.8899C276.153 35.915 275.914 36.8616 275.493 37.7296C275.059 38.6024 274.464 39.3663 273.709 40.0216C272.955 40.6769 272.056 41.1794 271.013 41.529C269.358 42.0838 267.883 42.1838 266.589 41.8289C265.294 41.474 264.135 40.7641 263.113 39.6992L265.35 37.9282C266.145 38.59 266.927 38.9852 267.697 39.1138C268.467 39.2423 269.276 39.1643 270.125 38.8799C270.973 38.5955 271.663 38.1398 272.195 37.5128C272.718 36.9043 273.056 36.1802 273.207 35.3404C273.35 34.5192 273.265 33.6428 272.952 32.7111C272.645 31.7933 272.184 31.0428 271.571 30.4594C270.944 29.8808 270.236 29.4994 269.447 29.3152C268.649 29.1496 267.826 29.209 266.978 29.4934C266.129 29.7778 265.437 30.2034 264.9 30.7702C264.363 31.337 263.977 32.1238 263.742 33.1306L260.889 33.066C261.063 31.6001 261.559 30.3354 262.379 29.2719C263.198 28.2083 264.435 27.3992 266.089 26.8444ZM257.886 36.6814L258.987 39.2012L253.383 41.6512L252.282 39.1314L257.886 36.6814ZM260.396 42.2588L259.99 43.6369L255.337 32.9936L256.69 33.5067L249.775 36.5295L248.674 34.0098L257.281 30.2467L263.283 43.974L254.675 47.7372L253.583 45.2376L260.396 42.2588ZM236.864 40.3863L250.045 46.3283L249.07 47.2937L243.297 36.8353L245.82 35.4425L253.061 48.5588L250.807 49.8027L237.927 43.9962L238.835 43.3191L244.374 53.3538L241.851 54.7466L234.611 41.6303L236.864 40.3863ZM228.814 45.3567L236.341 56.4671L233.937 58.0959L226.41 46.9855L228.814 45.3567ZM239.409 52.954L240.951 55.2307L230.97 61.9926L229.428 59.7159L239.409 52.954ZM213.715 56.3528L220.834 50.8862L229.959 62.7691L227.673 64.5243L219.674 54.1071L220.729 54.434L215.39 58.534L213.715 56.3528ZM213.542 65.7067L214.67 64.7236L216.92 73.5317L214.549 75.5991L211.868 64.4226L212.883 65.989L208.517 60.9811L210.69 59.0872L215.056 64.0951L213.676 62.8468L224.349 67.0547L221.945 69.1511L213.542 65.7067ZM179.107 92.5782L192.027 100.162L189.232 104.924C188.697 105.835 188.039 106.537 187.256 107.03C186.474 107.523 185.639 107.773 184.751 107.779C183.855 107.797 182.965 107.547 182.08 107.027C181.194 106.507 180.541 105.852 180.121 105.061C179.694 104.283 179.504 103.432 179.553 102.509C179.615 101.592 179.913 100.679 180.447 99.7682L182.085 96.9792L184.456 98.3712L182.964 100.914C182.533 101.647 182.363 102.329 182.452 102.96C182.553 103.598 182.927 104.106 183.572 104.485C184.242 104.878 184.874 104.96 185.468 104.731C186.062 104.501 186.575 104.019 187.005 103.286L188.509 100.724L188.747 101.579L177.648 95.0637L179.107 92.5782ZM175.075 99.4465L182.039 99.7076L180.435 102.44L173.483 102.16L175.075 99.4465ZM176.916 109.273L179.434 110.376L176.98 115.978L174.461 114.874L176.916 109.273ZM182.544 111.666L183.181 112.954L172.541 108.293L173.883 107.752L170.855 114.663L168.336 113.56L172.106 104.955L185.828 110.968L182.058 119.572L179.56 118.477L182.544 111.666ZM164.808 122.623C165.312 121.168 166.063 120.008 167.061 119.143C168.068 118.296 169.222 117.765 170.524 117.548C171.834 117.35 173.196 117.495 174.609 117.985C175.677 118.354 176.594 118.866 177.361 119.519C178.137 120.192 178.74 120.959 179.171 121.822C179.597 122.699 179.839 123.637 179.897 124.635C179.955 125.633 179.804 126.651 179.444 127.691C178.873 129.34 178.051 130.569 176.98 131.378C175.908 132.186 174.639 132.67 173.171 132.829L173.135 129.976C174.144 129.751 174.934 129.373 175.506 128.842C176.078 128.31 176.511 127.622 176.803 126.777C177.096 125.931 177.157 125.106 176.985 124.302C176.823 123.516 176.455 122.807 175.883 122.174C175.319 121.56 174.573 121.092 173.645 120.77C172.73 120.454 171.855 120.36 171.018 120.489C170.177 120.633 169.443 120.961 168.815 121.473C168.197 122.004 167.741 122.692 167.448 123.537C167.156 124.383 167.07 125.191 167.191 125.962C167.312 126.734 167.699 127.52 168.353 128.321L166.56 130.54C165.505 129.507 164.807 128.342 164.465 127.044C164.123 125.746 164.237 124.272 164.808 122.623ZM167.475 135.047L170.117 135.812L168.417 141.687L165.775 140.922L167.475 135.047ZM173.369 136.684L174.169 137.877L163.01 134.649L164.27 133.937L162.172 141.185L159.531 140.421L162.142 131.397L176.533 135.561L173.922 144.585L171.302 143.827L173.369 136.684ZM156.376 153.078L169.68 147.417L169.729 148.788L158.127 145.941L158.814 143.142L173.364 146.712L172.751 149.212L159.75 154.744L159.868 153.617L171 156.349L170.313 159.148L155.763 155.578L156.376 153.078ZM154.374 161.884L167.503 164.666L166.901 167.507L153.773 164.725L154.374 161.884ZM167.276 160.008L169.966 160.577L167.467 172.372L164.777 171.802L167.276 160.008ZM150.766 179.919L152.453 171.103L167.168 173.919L166.626 176.75L153.726 174.281L154.732 173.824L153.467 180.436L150.766 179.919ZM156.547 186.952L156.8 185.477L164.107 190.886L163.574 193.987L154.438 187.013L156.214 187.587L149.666 186.46L150.155 183.62L156.703 184.746L154.844 184.65L165.778 181.173L165.237 184.317L156.547 186.952ZM143.831 227.35L158.721 229.005L158.111 234.494C157.995 235.543 157.68 236.452 157.166 237.222C156.653 237.991 155.992 238.56 155.184 238.927C154.374 239.309 153.459 239.444 152.438 239.33C151.418 239.217 150.555 238.885 149.848 238.334C149.141 237.798 148.621 237.098 148.289 236.235C147.971 235.373 147.871 234.418 147.988 233.368L148.345 230.154L151.078 230.458L150.752 233.388C150.658 234.233 150.781 234.926 151.119 235.465C151.472 236.006 152.02 236.318 152.764 236.4C153.536 236.486 154.147 236.303 154.596 235.851C155.044 235.4 155.316 234.751 155.41 233.905L155.738 230.954L156.304 231.636L143.513 230.214L143.831 227.35ZM142.951 235.265L149.416 232.664L149.066 235.812L142.604 238.392L142.951 235.265ZM148.272 243.342L151.009 243.613L150.406 249.699L147.67 249.428L148.272 243.342ZM154.365 243.879L155.368 244.906L143.809 243.762L144.918 242.833L144.174 250.342L141.438 250.071L142.363 240.723L157.272 242.199L156.347 251.547L153.632 251.278L154.365 243.879ZM140.373 259.242C140.504 257.708 140.948 256.399 141.703 255.316C142.472 254.248 143.46 253.45 144.668 252.92C145.89 252.407 147.246 252.214 148.737 252.342C149.862 252.438 150.876 252.709 151.78 253.155C152.698 253.616 153.471 254.212 154.1 254.943C154.728 255.689 155.192 256.539 155.493 257.492C155.794 258.445 155.898 259.47 155.804 260.566C155.655 262.304 155.16 263.697 154.32 264.744C153.479 265.791 152.367 266.571 150.983 267.086L150.248 264.329C151.171 263.863 151.845 263.303 152.269 262.647C152.693 261.992 152.944 261.218 153.02 260.327C153.097 259.435 152.953 258.621 152.589 257.883C152.239 257.161 151.709 256.564 150.999 256.091C150.302 255.633 149.464 255.363 148.485 255.279C147.52 255.196 146.649 255.32 145.869 255.651C145.089 255.996 144.458 256.494 143.975 257.145C143.506 257.811 143.233 258.59 143.156 259.481C143.08 260.373 143.195 261.177 143.501 261.895C143.808 262.614 144.376 263.281 145.207 263.896L144.013 266.488C142.737 265.746 141.774 264.787 141.124 263.613C140.474 262.438 140.223 260.981 140.373 259.242ZM145.87 270.576L148.613 270.777L148.167 276.877L145.424 276.676L145.87 270.576ZM151.975 270.957L153.005 271.959L141.42 271.111L142.504 270.153L141.954 277.679L139.211 277.478L139.897 268.109L154.839 269.203L154.153 278.572L151.432 278.373L151.975 270.957ZM138.405 290.274L150.492 282.34L150.783 283.68L138.86 282.94L139.039 280.064L153.992 280.992L153.832 283.561L142.022 291.314L141.937 290.185L153.377 290.895L153.199 293.771L138.246 292.843L138.405 290.274ZM137.916 299.153L151.32 299.81L151.178 302.71L137.774 302.054L137.916 299.153ZM150.354 295.247L153.101 295.381L152.511 307.423L149.764 307.288L150.354 295.247ZM137.103 317.44L137.472 308.471L152.441 309.087L152.323 311.966L139.2 311.427L140.127 310.826L139.851 317.553L137.103 317.44ZM143.793 323.536L143.84 322.04L151.826 326.385L151.727 329.529L141.713 323.889L143.552 324.21L136.911 324.002L137.001 321.122L143.642 321.33L141.788 321.492L152.134 316.534L152.034 319.722L143.793 323.536ZM136.323 365.141L151.304 365.047L151.339 370.569C151.346 371.625 151.139 372.565 150.719 373.389C150.299 374.213 149.709 374.854 148.949 375.314C148.189 375.788 147.296 376.028 146.27 376.035C145.243 376.041 144.347 375.812 143.581 375.348C142.816 374.898 142.218 374.264 141.787 373.445C141.371 372.626 141.16 371.689 141.153 370.633L141.133 367.399L143.883 367.382L143.902 370.33C143.907 371.18 144.109 371.854 144.508 372.35C144.922 372.846 145.503 373.091 146.251 373.087C147.028 373.082 147.613 372.829 148.006 372.328C148.399 371.827 148.593 371.151 148.587 370.3L148.569 367.33L149.211 367.942L136.341 368.023L136.323 365.141ZM136.373 373.105L142.49 369.766L142.51 372.934L136.393 376.251L136.373 373.105ZM142.599 380.505L145.348 380.455L145.458 386.57L142.708 386.62L142.599 380.505ZM148.713 380.329L149.829 381.233L138.215 381.441L139.208 380.389L139.343 387.934L136.594 387.984L136.425 378.591L151.405 378.322L151.574 387.715L148.846 387.764L148.713 380.329ZM136.595 397.209C136.549 395.67 136.838 394.319 137.463 393.155C138.104 392.006 138.993 391.099 140.132 390.434C141.287 389.783 142.611 389.434 144.107 389.389C145.236 389.355 146.275 389.507 147.224 389.846C148.188 390.198 149.025 390.701 149.735 391.355C150.444 392.023 151.004 392.813 151.413 393.725C151.822 394.637 152.043 395.643 152.076 396.743C152.129 398.487 151.798 399.928 151.084 401.064C150.37 402.201 149.355 403.105 148.04 403.775L146.992 401.122C147.855 400.553 148.459 399.918 148.805 399.218C149.151 398.518 149.31 397.721 149.283 396.827C149.256 395.933 149.02 395.14 148.573 394.449C148.142 393.772 147.546 393.24 146.786 392.852C146.041 392.478 145.178 392.306 144.196 392.336C143.228 392.365 142.376 392.589 141.641 393.007C140.905 393.44 140.336 394.008 139.931 394.71C139.542 395.426 139.361 396.231 139.388 397.125C139.415 398.019 139.622 398.805 140.009 399.483C140.396 400.161 141.038 400.758 141.934 401.274L141.047 403.986C139.694 403.396 138.627 402.555 137.846 401.463C137.064 400.372 136.648 398.954 136.595 397.209ZM143.362 407.832L146.11 407.717L146.367 413.827L143.619 413.943L143.362 407.832ZM149.47 407.509L150.608 408.386L139.002 408.874L139.97 407.799L140.287 415.338L137.539 415.454L137.145 406.068L152.113 405.438L152.508 414.824L149.783 414.939L149.47 407.509ZM138.247 428.279L149.313 418.974L149.761 420.271L137.834 420.943L137.671 418.065L152.63 417.222L152.775 419.792L141.961 428.885L141.744 427.774L153.188 427.129L153.35 430.006L138.392 430.849L138.247 428.279ZM138.817 437.164L152.204 436.215L152.409 439.112L139.022 440.06L138.817 437.164ZM150.7 431.8L153.443 431.606L154.295 443.631L151.552 443.826L150.7 431.8ZM140.244 455.447L139.498 446.502L154.428 445.257L154.668 448.129L141.579 449.22L142.425 448.509L142.985 455.218L140.244 455.447ZM147.658 460.666L147.515 459.177L155.986 462.475L156.287 465.607L145.639 461.28L147.504 461.366L140.89 462.001L140.615 459.132L147.228 458.497L145.41 458.893L155.045 452.664L155.35 455.84L147.658 460.666ZM146.173 503.095L160.932 500.52L161.881 505.96C162.062 507 162.014 507.961 161.736 508.843C161.458 509.726 160.983 510.456 160.31 511.035C159.639 511.629 158.798 512.014 157.787 512.19C156.775 512.366 155.854 512.289 155.022 511.958C154.192 511.641 153.497 511.115 152.937 510.379C152.391 509.64 152.028 508.751 151.846 507.71L151.291 504.524L154 504.052L154.506 506.956C154.653 507.794 154.964 508.425 155.439 508.848C155.93 509.268 156.543 509.414 157.28 509.286C158.046 509.152 158.581 508.806 158.885 508.247C159.19 507.687 159.269 506.989 159.123 506.151L158.612 503.225L159.347 503.722L146.668 505.934L146.173 503.095ZM147.541 510.94L153.021 506.634L153.565 509.755L148.082 514.039L147.541 510.94ZM154.96 517.215L157.656 516.672L158.863 522.668L156.167 523.211L154.96 517.215ZM160.943 515.943L162.204 516.632L150.816 518.925L151.604 517.711L153.094 525.109L150.398 525.652L148.543 516.443L163.231 513.485L165.085 522.694L162.411 523.233L160.943 515.943ZM152.305 534.875C151.944 533.378 151.95 531.996 152.324 530.729C152.715 529.473 153.4 528.402 154.378 527.518C155.375 526.644 156.6 526.032 158.054 525.681C159.152 525.416 160.2 525.352 161.199 525.488C162.215 525.636 163.137 525.956 163.965 526.451C164.797 526.959 165.506 527.618 166.094 528.427C166.681 529.236 167.104 530.175 167.362 531.244C167.771 532.941 167.742 534.419 167.276 535.678C166.811 536.937 166.003 538.029 164.853 538.955L163.283 536.573C164.011 535.839 164.473 535.094 164.668 534.338C164.863 533.582 164.855 532.769 164.645 531.899C164.436 531.029 164.042 530.302 163.463 529.717C162.902 529.144 162.21 528.745 161.387 528.521C160.581 528.308 159.7 528.316 158.745 528.547C157.804 528.774 157.016 529.167 156.382 529.728C155.751 530.302 155.31 530.974 155.058 531.744C154.824 532.525 154.811 533.35 155.021 534.22C155.231 535.089 155.595 535.816 156.113 536.401C156.631 536.985 157.381 537.437 158.364 537.759L158.052 540.595C156.607 540.295 155.39 539.69 154.401 538.782C153.413 537.874 152.714 536.571 152.305 534.875ZM161.243 543.897L163.882 543.124L165.602 548.993L162.963 549.767L161.243 543.897ZM167.094 542.114L168.409 542.692L157.262 545.958L157.942 544.681L160.064 551.923L157.425 552.696L154.784 543.681L169.161 539.468L171.803 548.483L169.185 549.25L167.094 542.114ZM161.843 565.135L169.776 553.047L170.577 554.161L159.343 558.225L158.363 555.515L172.451 550.419L173.327 552.839L165.574 564.651L165.048 563.648L175.826 559.749L176.807 562.459L162.718 567.555L161.843 565.135ZM165.523 573.886L177.651 568.139L178.894 570.764L166.767 576.51L165.523 573.886ZM174.646 564.573L177.131 563.395L182.294 574.29L179.808 575.467L174.646 564.573ZM174.643 590.536L169.989 582.861L182.8 575.092L184.294 577.556L173.064 584.367L173.504 583.353L176.995 589.11L174.643 590.536ZM184.619 591.272L183.629 590.15L192.425 587.85L194.505 590.21L183.344 592.953L184.905 591.929L179.921 596.323L178.015 594.161L182.999 589.767L181.758 591.154L185.906 580.457L188.016 582.85L184.619 591.272ZM212.289 623.803L220.997 611.611L225.49 614.821C226.35 615.434 226.99 616.153 227.411 616.977C227.832 617.8 228.006 618.654 227.933 619.539C227.872 620.432 227.543 621.297 226.946 622.132C226.349 622.968 225.638 623.56 224.813 623.907C224 624.264 223.135 624.376 222.22 624.245C221.313 624.102 220.43 623.724 219.57 623.11L216.939 621.23L218.537 618.992L220.936 620.706C221.628 621.2 222.292 621.431 222.928 621.399C223.573 621.354 224.112 621.028 224.547 620.419C224.999 619.786 225.137 619.164 224.961 618.552C224.786 617.94 224.352 617.387 223.659 616.892L221.242 615.166L222.114 615.005L214.635 625.478L212.289 623.803ZM218.77 628.432L219.652 621.519L222.23 623.36L221.33 630.26L218.77 628.432ZM228.568 627.615L230.025 625.283L235.212 628.522L233.756 630.854L228.568 627.615ZM231.751 622.393L233.118 621.949L226.966 631.802L226.625 630.396L233.025 634.392L231.569 636.725L223.601 631.75L231.535 619.042L239.504 624.017L238.059 626.331L231.751 622.393ZM240.069 641.514C238.7 640.81 237.657 639.903 236.941 638.793C236.245 637.677 235.881 636.459 235.85 635.141C235.838 633.816 236.174 632.488 236.858 631.157C237.374 630.153 238.01 629.317 238.765 628.649C239.54 627.976 240.385 627.486 241.3 627.182C242.228 626.884 243.19 626.776 244.186 626.859C245.182 626.942 246.17 627.235 247.148 627.738C248.7 628.536 249.801 629.522 250.451 630.697C251.1 631.871 251.401 633.196 251.352 634.672L248.522 634.306C248.442 633.275 248.178 632.439 247.733 631.798C247.287 631.157 246.667 630.632 245.871 630.223C245.075 629.814 244.267 629.638 243.446 629.695C242.646 629.745 241.892 630.009 241.185 630.486C240.497 630.958 239.929 631.63 239.48 632.504C239.037 633.365 238.821 634.219 238.832 635.065C238.855 635.918 239.076 636.691 239.495 637.385C239.933 638.072 240.551 638.62 241.346 639.029C242.142 639.438 242.93 639.636 243.711 639.625C244.492 639.614 245.325 639.341 246.209 638.807L248.154 640.894C246.983 641.793 245.731 642.321 244.398 642.476C243.065 642.632 241.622 642.311 240.069 641.514ZM252.872 640.485L253.874 637.924L259.569 640.154L258.567 642.715L252.872 640.485ZM255.04 634.766L256.301 634.078L252.067 644.895L251.473 643.576L258.5 646.327L257.497 648.887L248.75 645.463L254.211 631.512L262.958 634.936L261.964 637.476L255.04 634.766ZM270.52 652.581L265.187 639.142L266.559 639.127L263.429 650.656L260.647 649.9L264.573 635.442L267.057 636.116L272.268 649.249L271.145 649.103L274.149 638.042L276.93 638.797L273.004 653.256L270.52 652.581ZM279.827 654.583L282.039 641.347L284.904 641.825L282.691 655.062L279.827 654.583ZM277.395 641.775L277.848 639.062L289.74 641.05L289.286 643.762L277.395 641.775ZM298.414 656.956L289.481 656.077L290.948 641.167L293.816 641.449L292.53 654.52L291.984 653.56L298.683 654.219L298.414 656.956ZM304.923 650.343L303.429 650.269L307.914 642.362L311.056 642.516L305.24 652.429L305.594 650.596L305.268 657.232L302.39 657.091L302.715 650.455L302.844 652.311L298.07 641.879L301.256 642.035L304.923 650.343ZM347.087 656.189L345.819 641.26L351.321 640.793C352.374 640.704 353.327 640.836 354.181 641.19C355.036 641.545 355.722 642.083 356.239 642.804C356.772 643.524 357.081 644.396 357.168 645.419C357.255 646.442 357.097 647.353 356.694 648.153C356.305 648.951 355.72 649.597 354.937 650.09C354.154 650.569 353.236 650.853 352.184 650.942L348.961 651.216L348.728 648.476L351.666 648.227C352.513 648.155 353.169 647.9 353.632 647.463C354.094 647.012 354.294 646.414 354.231 645.668C354.165 644.894 353.867 644.33 353.336 643.978C352.806 643.626 352.117 643.485 351.269 643.557L348.31 643.809L348.87 643.121L349.959 655.945L347.087 656.189ZM355.023 655.515L351.215 649.678L354.372 649.41L358.157 655.248L355.023 655.515ZM361.919 648.701L361.634 645.966L367.717 645.333L368.002 648.068L361.919 648.701ZM361.22 642.625L362.025 641.435L363.228 652.989L362.095 652.089L369.6 651.308L369.885 654.043L360.541 655.016L358.99 640.115L368.333 639.142L368.616 641.855L361.22 642.625ZM379.1 653.22C377.571 653.404 376.199 653.236 374.985 652.717C373.783 652.182 372.8 651.376 372.036 650.301C371.284 649.209 370.82 647.921 370.641 646.436C370.507 645.314 370.566 644.266 370.818 643.29C371.083 642.298 371.509 641.42 372.097 640.655C372.7 639.888 373.437 639.261 374.309 638.772C375.181 638.284 376.163 637.974 377.255 637.843C378.988 637.635 380.452 637.836 381.648 638.446C382.844 639.056 383.834 639.986 384.62 641.236L382.07 642.516C381.426 641.707 380.74 641.162 380.012 640.88C379.284 640.598 378.476 640.51 377.588 640.617C376.699 640.723 375.931 641.03 375.283 641.536C374.647 642.026 374.17 642.666 373.852 643.458C373.546 644.233 373.451 645.109 373.568 646.084C373.684 647.046 373.982 647.874 374.465 648.569C374.962 649.263 375.578 649.78 376.313 650.12C377.061 650.444 377.879 650.553 378.767 650.446C379.655 650.34 380.42 650.063 381.061 649.617C381.701 649.171 382.239 648.479 382.673 647.54L385.453 648.182C384.986 649.582 384.243 650.72 383.226 651.595C382.208 652.471 380.833 653.012 379.1 653.22ZM389.076 645.537L388.719 642.811L394.783 642.016L395.14 644.743L389.076 645.537ZM388.217 639.482L388.99 638.271L390.498 649.789L389.341 648.919L396.824 647.94L397.181 650.666L387.866 651.886L385.921 637.031L395.235 635.811L395.59 638.516L388.217 639.482ZM409.867 648.893L399.672 638.64L400.927 638.086L402.59 649.916L399.736 650.317L397.65 635.481L400.199 635.123L410.161 645.141L409.071 645.45L407.476 634.1L410.33 633.698L412.415 648.535L409.867 648.893ZM418.619 647.632L416.666 634.355L419.539 633.932L421.492 647.209L418.619 647.632ZM412.377 636.186L411.977 633.466L423.904 631.711L424.304 634.432L412.377 636.186ZM436.7 644.918L427.827 646.27L425.571 631.459L428.42 631.025L430.397 644.009L429.631 643.213L436.286 642.2L436.7 644.918ZM441.409 637.229L439.931 637.46L442.72 628.807L445.828 628.321L442.142 639.208L442.117 637.341L443.143 643.905L440.296 644.351L439.269 637.786L439.772 639.578L432.982 630.33L436.134 629.837L441.409 637.229Z" fill="white"/>
</svg>
