<svg width="450" height="26" viewBox="0 0 450 26" fill="none" xmlns="http://www.w3.org/2000/svg">
<path d="M2.88151 9.57737L8.78979 10.4125L8.53283 12.2304L2.62456 11.3953L2.88151 9.57737ZM2.28852e-05 13.5653L5.69378 2.67806L8.13452 3.02304L10.5373 15.0547L8.55103 14.774L6.49657 4.16505L6.96788 4.23166L1.96945 13.8437L2.28852e-05 13.5653ZM16.0758 15.926C15.3446 15.8363 14.7255 15.5777 14.2184 15.1501C13.7226 14.724 13.3565 14.1709 13.1202 13.4911C12.8965 12.8014 12.8378 12.0235 12.944 11.1573C13.0516 10.2799 13.2966 9.5392 13.679 8.93526C14.0627 8.32006 14.5452 7.87684 15.1266 7.6056C15.7206 7.32448 16.3888 7.22945 17.1312 7.3205C17.8849 7.41294 18.5265 7.67432 19.0561 8.10466C19.5856 8.53499 19.9685 9.09006 20.2049 9.76989C20.4412 10.4497 20.507 11.2171 20.4021 12.072C20.2972 12.9269 20.0473 13.6613 19.6523 14.2751C19.2587 14.8777 18.7523 15.3294 18.1331 15.6303C17.5265 15.9213 16.8407 16.0198 16.0758 15.926ZM11.7958 15.2127L13.2051 3.7218L15.1624 3.96186L14.5147 9.24328L14.3459 9.22259L13.8058 13.6266L13.9745 13.6473L13.2638 15.3927L11.7958 15.2127ZM15.9704 14.1319C16.6003 14.2091 17.1411 14.0357 17.5928 13.6115C18.0445 13.1873 18.3172 12.5928 18.411 11.8278C18.5035 11.0741 18.3811 10.4425 18.0439 9.93305C17.7082 9.4123 17.2253 9.1133 16.5954 9.03603C15.9767 8.96015 15.4359 9.13361 14.973 9.5564C14.5227 9.96933 14.2506 10.5583 14.1568 11.3232C14.063 12.0881 14.184 12.731 14.5197 13.2517C14.8681 13.7626 15.3517 14.056 15.9704 14.1319ZM25.0242 16.9258C24.1786 16.8391 23.453 16.5825 22.8474 16.1558C22.2417 15.7292 21.7914 15.1761 21.4965 14.4965C21.214 13.8068 21.116 13.0391 21.2027 12.1936C21.2916 11.3254 21.5438 10.588 21.9592 9.98114C22.3869 9.3642 22.9406 8.90826 23.6202 8.61334C24.2998 8.31841 25.0624 8.21427 25.908 8.30091C26.7536 8.38756 27.4792 8.64419 28.0849 9.07082C28.6905 9.49745 29.1346 10.0556 29.4171 10.7453C29.712 11.425 29.815 12.1988 29.7261 13.0669C29.6394 13.9125 29.3822 14.6438 28.9544 15.2607C28.5391 15.8675 27.9916 16.3184 27.312 16.6133C26.6324 16.9083 25.8698 17.0124 25.0242 16.9258ZM25.2183 15.0317C25.8948 15.101 26.4641 14.9372 26.9263 14.5402C27.3897 14.132 27.6583 13.5671 27.7322 12.8455C27.8062 12.124 27.6571 11.522 27.285 11.0395C26.9141 10.5458 26.3904 10.2643 25.7139 10.195C25.0375 10.1257 24.4681 10.2895 24.0059 10.6864C23.5437 11.0834 23.2751 11.6483 23.2 12.3811C23.126 13.1027 23.2745 13.7103 23.6455 14.204C24.0176 14.6865 24.5418 14.9624 25.2183 15.0317ZM33.4391 17.7476C32.8184 17.6907 32.3306 17.5493 31.9757 17.3233C31.6322 17.0984 31.3851 16.814 31.2345 16.4701C31.0839 16.1263 30.9939 15.7425 30.9644 15.3187C30.9462 14.896 30.9578 14.4589 30.9992 14.0074L31.4536 9.04718L33.4173 9.22708L32.9459 14.3735C32.8963 14.9153 32.9812 15.2929 33.2006 15.5065C33.4323 15.7098 33.7119 15.8265 34.0392 15.8564C34.3665 15.8864 34.6938 15.8538 35.0212 15.7586C35.3599 15.6645 35.675 15.5169 35.9665 15.316C36.2693 15.1161 36.5122 14.888 36.695 14.6316L36.7512 15.6952L36.328 15.6564L36.8878 9.545L38.8516 9.7249L38.0948 17.9863L36.6219 17.8514L36.3552 16.2905L36.9139 16.3417C36.6007 16.6545 36.2517 16.9241 35.8667 17.1506C35.4818 17.3771 35.0851 17.5456 34.6766 17.6561C34.2692 17.7554 33.8567 17.7858 33.4391 17.7476ZM43.4865 18.5565C42.6954 18.4982 42.0839 18.2371 41.6522 17.7734C41.2326 17.2993 41.0575 16.5931 41.1267 15.655L41.5408 10.0433L41.5483 9.94154L42.0627 8.05327L43.6564 8.17088L43.1058 15.6306C43.0808 15.9697 43.1472 16.2246 43.3051 16.3953C43.463 16.5661 43.6775 16.6615 43.9488 16.6815C44.1296 16.6948 44.2944 16.6956 44.443 16.6839C44.5916 16.6721 44.7236 16.6534 44.8392 16.6279L44.704 18.4589C44.5303 18.5029 44.3461 18.5348 44.1515 18.5545C43.9682 18.575 43.7465 18.5757 43.4865 18.5565ZM40.1442 11.6448L40.2768 9.8477L45.3121 10.2193L45.1795 12.0164L40.1442 11.6448ZM55.7655 19.3983C54.8491 19.3442 54.0618 19.1218 53.4036 18.7311C52.7455 18.3403 52.2448 17.7829 51.9015 17.0587C51.5695 16.3353 51.4335 15.4644 51.4936 14.4462L51.9099 7.38646L53.8785 7.50255L53.4712 14.4095C53.4165 15.3373 53.5944 16.0744 54.0049 16.6208C54.4274 17.1566 55.0517 17.4489 55.8776 17.4976C56.7261 17.5476 57.386 17.3311 57.8572 16.848C58.3292 16.3536 58.5925 15.6425 58.6472 14.7148L59.0545 7.80779L61.0231 7.92388L60.6068 14.9836C60.5467 16.0018 60.3037 16.8503 59.8776 17.5291C59.4629 18.2085 58.9058 18.7036 58.2063 19.0143C57.5068 19.325 56.6932 19.453 55.7655 19.3983ZM65.0493 19.9314C64.4381 19.9004 63.8564 19.7347 63.3043 19.4343C62.7521 19.1339 62.2887 18.6508 61.914 17.9849L63.307 17.0343C63.6258 17.459 63.9335 17.7697 64.2299 17.9663C64.5263 18.1629 64.8952 18.2725 65.3366 18.2949C65.6536 18.311 65.9066 18.2444 66.0958 18.0951C66.2849 17.9458 66.3855 17.7524 66.3976 17.5147C66.4056 17.3562 66.3675 17.2124 66.2833 17.0833C66.1991 16.9542 66.035 16.8324 65.7912 16.7179C65.5593 16.5926 65.2198 16.4619 64.7728 16.3257C63.9461 16.0682 63.3215 15.7414 62.8991 15.3455C62.4879 14.9501 62.301 14.3846 62.3384 13.6489C62.3619 13.1848 62.5023 12.7664 62.7596 12.3936C63.0174 12.0095 63.3784 11.7158 63.8427 11.5124C64.3075 11.2977 64.8455 11.2058 65.4567 11.2369C66.1924 11.2742 66.8131 11.4533 67.3189 11.774C67.8246 12.0947 68.2199 12.4666 68.5048 12.8896L67.0744 13.9064C66.8929 13.6815 66.6426 13.4702 66.3236 13.2725C66.0164 13.064 65.6365 12.9482 65.1837 12.9252C64.9121 12.9114 64.6653 12.967 64.4433 13.0919C64.2214 13.2168 64.1041 13.4037 64.0914 13.6528C64.0794 13.8905 64.1768 14.094 64.3839 14.2634C64.5909 14.4328 64.9909 14.6006 65.5839 14.7669C66.5792 15.0557 67.2818 15.4091 67.6918 15.8271C68.1018 16.2451 68.2904 16.7767 68.2577 17.4219C68.2301 17.9652 68.0645 18.4334 67.7608 18.8265C67.4577 19.2083 67.0687 19.4949 66.5937 19.6864C66.1187 19.8779 65.6039 19.9596 65.0493 19.9314ZM124.79 15.9304L124.77 14.0605L129.342 14.0116L129.362 15.8815L124.79 15.9304ZM125.317 20.719L123.345 20.7401L123.221 9.16376L130.242 9.08873L130.262 10.9586L124.652 11.0186L125.205 10.2986L125.317 20.719ZM134.888 20.7666C134.072 20.7789 133.355 20.614 132.738 20.2719C132.121 19.9185 131.632 19.4214 131.271 18.7808C130.921 18.14 130.74 17.389 130.727 16.5277C130.713 15.6552 130.872 14.8934 131.202 14.2423C131.544 13.5798 132.018 13.0626 132.624 12.6907C133.231 12.3189 133.942 12.1269 134.758 12.1146C135.585 12.1021 136.307 12.2783 136.925 12.643C137.554 12.9963 138.043 13.499 138.393 14.1511C138.742 14.7919 138.924 15.5373 138.936 16.3872C138.938 16.4892 138.934 16.5912 138.924 16.6934C138.926 16.7954 138.921 16.8861 138.911 16.9656L132.469 17.0626L132.445 15.4818L137.425 15.4068L137.031 16.3138C137.019 15.5319 136.828 14.8944 136.458 14.4012C136.088 13.9081 135.535 13.6671 134.798 13.6781C134.13 13.6882 133.6 13.9059 133.21 14.3311C132.831 14.7449 132.646 15.2917 132.656 15.9716L132.67 16.8725C132.681 17.5751 132.882 18.1332 133.273 18.5466C133.676 18.9486 134.223 19.1444 134.914 19.134C135.538 19.1246 136.017 18.9871 136.353 18.7213C136.701 18.4554 136.996 18.1279 137.24 17.7389L138.663 18.5675C138.3 19.2758 137.809 19.8159 137.191 20.1879C136.574 20.5599 135.806 20.7528 134.888 20.7666ZM143.101 20.6792C142.467 20.6943 141.914 20.5942 141.444 20.3786C140.986 20.1515 140.626 19.8313 140.367 19.418C140.108 19.0048 139.971 18.5092 139.958 17.9314C139.944 17.3649 140.057 16.869 140.296 16.4439C140.547 16.0185 140.902 15.6812 141.36 15.4322C141.819 15.1719 142.354 15.0344 142.966 15.0198C143.77 15.0006 144.421 15.1665 144.916 15.5175C145.424 15.8681 145.776 16.3699 145.973 17.0227L144.985 16.9782L144.936 14.9218C144.928 14.5819 144.802 14.2788 144.557 14.0126C144.324 13.7461 143.93 13.6194 143.375 13.6327C143.058 13.6402 142.708 13.6883 142.324 13.7768C141.941 13.8539 141.547 13.9937 141.144 14.196L140.514 12.7486C140.984 12.4994 141.479 12.3062 141.997 12.1691C142.526 12.0318 143.052 11.9569 143.573 11.9445C144.309 11.9269 144.919 12.0484 145.401 12.309C145.895 12.558 146.266 12.9062 146.514 13.3537C146.763 13.8013 146.894 14.3196 146.909 14.9088L147.038 20.3472L145.526 20.3833L145.047 18.8473L146.009 18.5353C145.832 19.2197 145.488 19.7437 144.975 20.1074C144.473 20.4708 143.849 20.6614 143.101 20.6792ZM143.521 19.0537C143.975 19.0429 144.335 18.9266 144.601 18.7049C144.879 18.4829 145.014 18.1849 145.005 17.811C144.996 17.4144 144.847 17.1176 144.559 16.9204C144.282 16.7116 143.917 16.6126 143.463 16.6234C143.01 16.6342 142.645 16.7506 142.366 16.9727C142.099 17.1831 141.971 17.4866 141.98 17.8831C141.989 18.257 142.132 18.5484 142.409 18.7572C142.697 18.9657 143.068 19.0645 143.521 19.0537ZM152.081 20.3779C151.288 20.3972 150.654 20.1973 150.179 19.778C149.715 19.3472 149.471 18.6616 149.448 17.7212L149.311 12.0958L149.309 11.9939L149.636 10.0643L151.234 10.0255L151.416 17.5032C151.424 17.8431 151.515 18.0903 151.689 18.2448C151.863 18.3993 152.085 18.4732 152.357 18.4666C152.539 18.4622 152.703 18.4469 152.849 18.4206C152.996 18.3944 153.126 18.3629 153.238 18.3261L153.283 20.1616C153.114 20.2224 152.934 20.2721 152.742 20.3108C152.562 20.3492 152.341 20.3716 152.081 20.3779ZM148.078 13.8264L148.034 12.0249L153.082 11.902L153.126 13.7035L148.078 13.8264ZM157.856 20.2422C157.233 20.2622 156.732 20.182 156.352 20.0014C155.983 19.8205 155.703 19.5687 155.511 19.2461C155.319 18.9234 155.182 18.5536 155.101 18.1367C155.031 17.7194 154.988 17.2842 154.974 16.8311L154.814 11.8527L156.785 11.7893L156.951 16.9546C156.968 17.4983 157.099 17.8626 157.343 18.0475C157.598 18.2208 157.89 18.3021 158.219 18.2915C158.547 18.281 158.868 18.2083 159.181 18.0735C159.505 17.9383 159.8 17.7531 160.065 17.5178C160.34 17.2821 160.553 17.0258 160.703 16.7488L160.89 17.7974L160.465 17.811L160.268 11.6772L162.239 11.6138L162.506 19.9055L161.027 19.9531L160.57 18.437L161.131 18.419C160.859 18.7679 160.546 19.0784 160.192 19.3506C159.837 19.6228 159.465 19.8389 159.073 19.9989C158.681 20.1476 158.275 20.2287 157.856 20.2422ZM165.751 11.4997L166.317 13.7435L166.514 19.7753L164.543 19.8395L164.273 11.5479L165.751 11.4997ZM165.991 14.6896L165.577 14.516L165.529 13.0378L165.675 12.8289C165.782 12.6326 165.956 12.4115 166.198 12.1655C166.439 11.9195 166.721 11.7062 167.044 11.5256C167.379 11.3446 167.721 11.2484 168.072 11.2369C168.242 11.2314 168.401 11.2375 168.549 11.2554C168.709 11.2729 168.829 11.3086 168.91 11.3627L168.968 13.1467L168.424 13.1645C167.677 13.1888 167.12 13.3261 166.754 13.5761C166.388 13.8149 166.133 14.186 165.991 14.6896ZM173.648 19.6818C172.833 19.7138 172.112 19.5663 171.487 19.2393C170.861 18.9009 170.36 18.4159 169.984 17.7842C169.618 17.152 169.419 16.4056 169.385 15.545C169.351 14.673 169.491 13.9075 169.805 13.2487C170.131 12.5781 170.592 12.0496 171.189 11.6631C171.786 11.2767 172.493 11.0675 173.308 11.0355C174.135 11.003 174.861 11.1616 175.487 11.5113C176.125 11.8492 176.626 12.3399 176.991 12.9833C177.357 13.6155 177.556 14.3562 177.589 15.2056C177.593 15.3075 177.592 15.4096 177.584 15.512C177.588 15.6139 177.586 15.7048 177.578 15.7845L171.14 16.0374L171.078 14.4577L176.055 14.2621L175.683 15.1784C175.652 14.397 175.446 13.7643 175.064 13.2803C174.682 12.7962 174.123 12.5687 173.387 12.5976C172.718 12.6238 172.194 12.8543 171.814 13.2888C171.445 13.7117 171.274 14.2628 171.301 14.9423L171.336 15.8426C171.364 16.5447 171.578 17.0977 171.98 17.5016C172.392 17.8937 172.944 18.0762 173.635 18.049C174.258 18.0246 174.734 17.8754 175.063 17.6016C175.404 17.3273 175.692 16.9928 175.926 16.598L177.369 17.3919C177.023 18.1087 176.545 18.6606 175.937 19.0474C175.328 19.4343 174.565 19.6457 173.648 19.6818ZM182.566 19.3363C181.819 19.3678 181.149 19.2145 180.556 18.8764C179.963 18.527 179.489 18.0365 179.133 17.4049C178.788 16.7615 178.598 16.0095 178.562 15.1489C178.526 14.2884 178.653 13.5287 178.942 12.8699C179.244 12.2107 179.675 11.6877 180.238 11.3011C180.8 10.9145 181.46 10.7052 182.219 10.6733C182.955 10.6423 183.602 10.7909 184.16 11.1191C184.73 11.4354 185.181 11.9156 185.514 12.5594C185.847 13.192 186.032 13.9499 186.069 14.8331C186.106 15.705 185.985 16.4758 185.707 17.1454C185.428 17.8037 185.019 18.3257 184.48 18.7114C183.94 19.097 183.302 19.3054 182.566 19.3363ZM182.832 17.5556C183.466 17.5289 183.966 17.2754 184.331 16.7949C184.707 16.3027 184.879 15.6715 184.847 14.9016C184.815 14.1316 184.591 13.5228 184.175 13.0752C183.77 12.6158 183.25 12.3995 182.616 12.4261C181.982 12.4528 181.471 12.7125 181.083 13.2052C180.707 13.6862 180.534 14.306 180.566 15.0646C180.598 15.8346 180.823 16.4491 181.239 16.908C181.667 17.3664 182.198 17.5823 182.832 17.5556ZM185.412 19.0295L184.86 17.2321L185.013 17.2256L184.826 12.7926L184.673 12.799L184.45 7.48269L186.42 7.39981L186.907 18.9666L185.412 19.0295ZM247.24 16.0286C246.063 16.0943 245.019 15.8972 244.108 15.4373C243.196 14.9661 242.472 14.2971 241.936 13.4304C241.41 12.5517 241.115 11.5409 241.051 10.398C241.003 9.53798 241.1 8.73798 241.343 7.99797C241.596 7.24602 241.968 6.58958 242.459 6.02867C242.961 5.46713 243.56 5.01934 244.257 4.68531C244.953 4.35128 245.726 4.16057 246.574 4.11316C247.898 4.03921 249 4.25577 249.88 4.76283C250.759 5.2699 251.481 5.99578 252.045 6.94049L250.213 7.6728C249.699 7.00909 249.151 6.55725 248.57 6.31728C248.001 6.07667 247.371 5.97564 246.681 6.0142C245.945 6.05528 245.298 6.26734 244.741 6.65036C244.183 7.02207 243.751 7.52292 243.446 8.15293C243.14 8.78294 243.01 9.494 243.054 10.2861C243.098 11.0782 243.307 11.7703 243.681 12.3624C244.054 12.9545 244.54 13.4098 245.136 13.7283C245.732 14.0356 246.398 14.1686 247.134 14.1276C247.824 14.089 248.439 13.9184 248.978 13.6159C249.529 13.3127 250.022 12.8027 250.459 12.0859L252.361 12.6097C251.906 13.6112 251.27 14.413 250.452 15.0149C249.635 15.6167 248.564 15.9546 247.24 16.0286ZM256.212 15.5785C255.579 15.6139 255.024 15.5314 254.547 15.331C254.081 15.1186 253.712 14.8101 253.44 14.4053C253.167 14.0005 253.015 13.5096 252.983 12.9325C252.951 12.3667 253.048 11.8675 253.274 11.4349C253.511 11.0017 253.854 10.6533 254.305 10.3898C254.755 10.1149 255.286 9.96042 255.897 9.92629C256.7 9.88142 257.355 10.0264 257.862 10.3614C258.38 10.6957 258.748 11.1859 258.966 11.8321L257.978 11.8192L257.863 9.76539C257.844 9.42592 257.708 9.12704 257.455 8.86873C257.214 8.6098 256.816 8.49581 256.261 8.52679C255.944 8.54448 255.596 8.60368 255.216 8.70438C254.835 8.79377 254.446 8.94602 254.049 9.16114L253.374 7.7346C253.836 7.47042 254.323 7.26156 254.837 7.10801C255.362 6.95383 255.885 6.86221 256.405 6.83313C257.141 6.79205 257.754 6.89402 258.244 7.13905C258.745 7.37213 259.127 7.70835 259.39 8.14771C259.653 8.58706 259.801 9.10095 259.834 9.68936L260.137 15.1209L258.626 15.2053L258.099 13.6853L259.05 13.3427C258.896 14.0324 258.568 14.5672 258.067 14.9471C257.578 15.3263 256.959 15.5368 256.212 15.5785ZM256.581 13.9404C257.033 13.9151 257.389 13.7874 257.649 13.5572C257.92 13.3264 258.045 13.0243 258.024 12.6509C258.002 12.2548 257.844 11.9629 257.549 11.775C257.266 11.5752 256.898 11.4879 256.445 11.5132C255.992 11.5385 255.631 11.6665 255.36 11.8973C255.1 12.1162 254.981 12.4236 255.003 12.8197C255.024 13.1931 255.176 13.4797 255.459 13.6795C255.754 13.8787 256.128 13.9657 256.581 13.9404ZM263.678 15.0083C263.35 15.0266 263.046 14.9698 262.766 14.8378C262.485 14.6946 262.258 14.4803 262.083 14.1949C261.908 13.8983 261.807 13.5179 261.781 13.054L261.245 3.46395L263.18 3.35587L263.677 12.25C263.698 12.6234 263.797 12.8676 263.973 12.9826C264.15 13.0976 264.352 13.1488 264.578 13.1361L264.672 14.8165C264.538 14.8694 264.382 14.9122 264.202 14.9449C264.034 14.977 263.859 14.9981 263.678 15.0083ZM269.808 14.751C268.993 14.7965 268.271 14.6609 267.64 14.3442C267.009 14.0163 266.5 13.5396 266.113 12.9142C265.737 12.2882 265.526 11.5451 265.478 10.6852C265.429 9.81384 265.556 9.04621 265.86 8.38225C266.174 7.70635 266.626 7.17028 267.217 6.77405C267.808 6.37781 268.511 6.15694 269.325 6.11143C270.152 6.06529 270.88 6.21187 271.512 6.55115C272.155 6.87849 272.664 7.36084 273.04 7.99818C273.416 8.62422 273.627 9.36157 273.675 10.2102C273.681 10.3121 273.681 10.4142 273.675 10.5167C273.681 10.6186 273.68 10.7094 273.673 10.7892L267.24 11.1486L267.152 9.57003L272.125 9.29224L271.768 10.2146C271.724 9.43381 271.508 8.80459 271.118 8.32692C270.728 7.84926 270.165 7.63097 269.43 7.67205C268.762 7.70934 268.242 7.94839 267.869 8.38919C267.507 8.81805 267.345 9.37195 267.383 10.0509L267.433 10.9505C267.473 11.6521 267.696 12.2014 268.104 12.5986C268.523 12.9839 269.078 13.1572 269.768 13.1187C270.39 13.0839 270.864 12.9269 271.189 12.6477C271.525 12.3678 271.807 12.0286 272.034 11.6299L273.491 12.3999C273.156 13.1224 272.688 13.682 272.086 14.0789C271.484 14.4757 270.725 14.6998 269.808 14.751ZM279.773 5.54305C280.361 5.51169 280.83 5.58317 281.18 5.75747C281.53 5.93178 281.799 6.18416 281.986 6.51464C282.174 6.8338 282.301 7.20154 282.369 7.61787C282.447 8.02227 282.498 8.44516 282.521 8.88654L282.787 13.8775L280.818 13.9824L280.543 8.82169C280.514 8.26715 280.375 7.90567 280.128 7.73725C279.891 7.55692 279.603 7.4758 279.264 7.49389C278.947 7.51077 278.622 7.59616 278.29 7.75005C277.968 7.89203 277.678 8.08343 277.418 8.32424C277.158 8.55374 276.951 8.81448 276.796 9.10646L276.586 8.04512L277.011 8.0225L277.338 14.1678L275.369 14.2727L274.927 5.98845L276.404 5.90977L276.892 7.39892L276.316 7.44664C276.614 7.07893 276.943 6.76063 277.304 6.49175C277.663 6.21155 278.049 5.9924 278.46 5.83428C278.882 5.66424 279.32 5.56716 279.773 5.54305ZM287.955 13.803C287.208 13.8405 286.536 13.6926 285.941 13.3593C285.345 13.0147 284.867 12.528 284.506 11.8993C284.156 11.2587 283.96 10.5082 283.917 9.64798C283.873 8.78773 283.994 8.02706 284.279 7.36599C284.575 6.70434 285.002 6.17795 285.561 5.7868C286.12 5.39565 286.779 5.18107 287.538 5.14306C288.273 5.10618 288.922 5.24957 289.483 5.57323C290.054 5.885 290.509 6.36148 290.848 7.00267C291.186 7.63254 291.377 8.38893 291.421 9.27182C291.465 10.1434 291.35 10.9151 291.078 11.5869C290.804 12.2474 290.399 12.7727 289.863 13.1627C289.327 13.5527 288.69 13.7662 287.955 13.803ZM288.206 12.0202C288.84 11.9885 289.337 11.7309 289.699 11.2475C290.071 10.7523 290.238 10.1198 290.2 9.35007C290.161 8.58037 289.932 7.97341 289.513 7.52918C289.104 7.07307 288.583 6.8609 287.949 6.89267C287.315 6.92444 286.806 7.18824 286.422 7.68407C286.05 8.16801 285.882 8.78918 285.92 9.54756C285.959 10.3173 286.188 10.9299 286.608 11.3854C287.039 11.8404 287.572 12.052 288.206 12.0202ZM290.798 13.4733L290.231 11.6804L290.384 11.6727L290.162 7.24131L290.009 7.24897L289.743 1.93464L291.712 1.83592L292.292 13.3984L290.798 13.4733ZM296.893 13.4061C296.259 13.4378 295.705 13.3522 295.229 13.149C294.765 12.934 294.397 12.6234 294.127 12.217C293.857 11.8107 293.708 11.3189 293.679 10.7416C293.651 10.1757 293.75 9.67705 293.978 9.24576C294.218 8.81391 294.564 8.4675 295.016 8.20653C295.467 7.93425 295.999 7.78279 296.61 7.75215C297.414 7.71187 298.068 7.86063 298.573 8.19845C299.089 8.5357 299.454 9.02804 299.668 9.67547L298.68 9.65691L298.577 7.60249C298.56 7.26292 298.426 6.96326 298.174 6.70352C297.934 6.44321 297.537 6.32695 296.982 6.35475C296.666 6.37064 296.317 6.42784 295.936 6.52637C295.554 6.61357 295.165 6.7636 294.767 6.97645L294.099 5.54607C294.563 5.28454 295.052 5.07847 295.566 4.92786C296.092 4.77668 296.615 4.68805 297.136 4.66195C297.872 4.62507 298.484 4.73054 298.973 4.97837C299.473 5.21432 299.853 5.55271 300.113 5.99356C300.374 6.43441 300.519 6.94914 300.548 7.53773L300.82 12.9709L299.309 13.0467L298.79 11.5237L299.744 11.1866C299.585 11.8754 299.255 12.4083 298.752 12.7852C298.26 13.1617 297.64 13.3686 296.893 13.4061ZM297.271 11.7701C297.724 11.7474 298.08 11.6217 298.341 11.393C298.614 11.1638 298.74 10.8624 298.722 10.4889C298.702 10.0927 298.545 9.79984 298.252 9.61028C297.97 9.40883 297.602 9.31945 297.149 9.34215C296.696 9.36484 296.334 9.49081 296.062 9.72006C295.8 9.93742 295.68 10.2442 295.699 10.6404C295.718 11.0139 295.869 11.3014 296.151 11.5028C296.445 11.7037 296.818 11.7928 297.271 11.7701ZM303.847 4.52339L304.443 6.75942L304.72 12.7881L302.75 12.8785L302.369 4.5912L303.847 4.52339ZM304.129 7.7098L303.713 7.5417L303.645 6.06426L303.789 5.85346C303.893 5.6558 304.064 5.43238 304.302 5.1832C304.541 4.93401 304.82 4.71698 305.14 4.53209C305.472 4.34668 305.814 4.24592 306.165 4.22982C306.335 4.22202 306.494 4.22607 306.642 4.24196C306.801 4.25733 306.922 4.2915 307.004 4.34447L307.086 6.12759L306.542 6.15253C305.795 6.18682 305.24 6.33142 304.877 6.58631C304.514 6.82989 304.265 7.20438 304.129 7.7098ZM363.29 6.16625L365.584 6.21829C366.286 6.23422 366.846 6.05986 367.262 5.6952C367.69 5.33081 367.911 4.81436 367.927 4.14587C367.943 3.43205 367.751 2.88923 367.351 2.51741C366.952 2.14558 366.401 1.9517 365.698 1.93577L363.387 1.88335L363.788 1.45033L363.558 11.5967L361.586 11.552L361.849 -0.0220171L365.978 0.0716492C366.806 0.0904081 367.515 0.282219 368.108 0.647082C368.712 1.00087 369.177 1.48754 369.503 2.10709C369.83 2.71531 369.984 3.41032 369.966 4.19212C369.949 4.96259 369.763 5.64989 369.409 6.25403C369.056 6.84683 368.569 7.30625 367.95 7.63229C367.33 7.95832 366.612 8.11209 365.797 8.09359L363.247 8.03577L363.29 6.16625ZM373.661 12.0985C373.038 12.0697 372.544 11.9504 372.18 11.7407C371.826 11.5315 371.566 11.2585 371.401 10.9218C371.235 10.5851 371.127 10.2058 371.079 9.78375C371.042 9.36225 371.033 8.92507 371.054 8.47222L371.284 3.49654L373.254 3.58763L373.016 8.75012C372.99 9.29353 373.092 9.66697 373.321 9.87043C373.562 10.0631 373.846 10.167 374.175 10.1822C374.503 10.1974 374.829 10.15 375.151 10.0401C375.485 9.93079 375.793 9.76919 376.076 9.55533C376.369 9.34199 376.601 9.10313 376.772 8.83875L376.877 9.89869L376.452 9.87906L376.736 3.74861L378.705 3.83971L378.322 12.1269L376.845 12.0585L376.508 10.5113L377.068 10.5372C376.77 10.8638 376.433 11.1489 376.059 11.3925C375.684 11.6361 375.296 11.8224 374.893 11.9512C374.49 12.0688 374.079 12.1179 373.661 12.0985ZM384.484 12.7608C383.75 12.7042 383.12 12.4738 382.594 12.0695C382.079 11.6661 381.689 11.1301 381.422 10.4617C381.167 9.78276 381.073 9.00826 381.141 8.13818C381.208 7.25679 381.42 6.50581 381.775 5.88524C382.13 5.25337 382.592 4.78884 383.161 4.49166C383.741 4.18404 384.405 4.05898 385.15 4.11647C385.908 4.17483 386.56 4.40702 387.109 4.81303C387.657 5.21905 388.065 5.7563 388.331 6.42477C388.598 7.09325 388.699 7.85688 388.632 8.71567C388.566 9.57446 388.35 10.3193 387.983 10.9503C387.617 11.57 387.131 12.0441 386.526 12.3726C385.933 12.6906 385.253 12.8201 384.484 12.7608ZM380.176 12.2412L381.066 0.698452L383.032 0.850011L382.623 6.15527L382.454 6.14221L382.113 10.5661L382.282 10.5792L381.651 12.3549L380.176 12.2412ZM384.298 10.9732C384.931 11.022 385.463 10.8243 385.895 10.3802C386.327 9.93613 386.573 9.32989 386.632 8.5615C386.691 7.80441 386.54 7.17898 386.18 6.6852C385.821 6.18012 385.325 5.90319 384.693 5.85442C384.071 5.80651 383.539 6.00417 383.095 6.44741C382.664 6.88022 382.419 7.48081 382.36 8.2492C382.3 9.01759 382.45 9.65432 382.809 10.1594C383.18 10.654 383.676 10.9253 384.298 10.9732ZM391.344 13.2646C391.017 13.23 390.726 13.1252 390.471 12.9501C390.217 12.7638 390.027 12.5157 389.9 12.206C389.774 11.8851 389.736 11.4935 389.785 11.0314L390.794 1.47957L392.721 1.68314L391.785 10.5419C391.746 10.9138 391.804 11.1707 391.96 11.3125C392.116 11.4543 392.307 11.5372 392.532 11.561L392.356 13.2347C392.216 13.2655 392.054 13.2826 391.871 13.2861C391.7 13.2908 391.524 13.2836 391.344 13.2646ZM395.753 13.7075L393.797 13.4592L394.842 5.22924L396.798 5.47758L395.753 13.7075ZM394.914 2.6337C394.96 2.27392 395.104 1.99516 395.346 1.79741C395.601 1.58985 395.919 1.51034 396.301 1.55886C396.661 1.60453 396.939 1.75969 397.133 2.02434C397.33 2.27775 397.405 2.58434 397.359 2.94412C397.314 3.3039 397.164 3.58195 396.911 3.77827C396.657 3.97459 396.351 4.04991 395.991 4.00424C395.609 3.95571 395.319 3.80475 395.123 3.55134C394.938 3.29936 394.868 2.99348 394.914 2.6337ZM401.202 14.7624C400.363 14.6236 399.662 14.3179 399.096 13.8454C398.543 13.3746 398.145 12.7919 397.904 12.0972C397.674 11.4044 397.628 10.6387 397.767 9.80008C397.906 8.96148 398.195 8.25127 398.636 7.66943C399.09 7.07826 399.654 6.65465 400.329 6.3986C401.016 6.13322 401.779 6.0699 402.617 6.20865C403.456 6.3474 404.163 6.68846 404.74 7.23183C405.327 7.77705 405.706 8.4371 405.877 9.21199L403.935 9.70057C403.837 9.24793 403.645 8.88297 403.358 8.6057C403.071 8.32842 402.709 8.15371 402.273 8.08156C401.669 7.98166 401.125 8.10993 400.641 8.46637C400.17 8.81348 399.872 9.3672 399.746 10.1275C399.622 10.8767 399.726 11.497 400.058 11.9885C400.402 12.4818 400.875 12.7784 401.479 12.8783C401.915 12.9505 402.314 12.9016 402.675 12.7316C403.036 12.5616 403.336 12.2781 403.574 11.8809L405.258 12.9521C404.836 13.629 404.258 14.1364 403.524 14.4746C402.803 14.8033 402.029 14.8993 401.202 14.7624ZM408.35 16.0803C407.727 15.9621 407.208 15.7483 406.793 15.439C406.392 15.1207 406.108 14.7324 405.942 14.2739C405.775 13.8155 405.745 13.3023 405.853 12.7344C405.959 12.1777 406.173 11.7166 406.496 11.351C406.83 10.9876 407.248 10.7323 407.749 10.585C408.252 10.4266 408.804 10.4044 409.405 10.5185C410.196 10.6684 410.797 10.9669 411.208 11.4141C411.63 11.8633 411.869 12.4277 411.925 13.1073L410.969 12.8568L411.352 10.8358C411.415 10.5018 411.355 10.1789 411.172 9.86737C411 9.5579 410.641 9.35142 410.096 9.24795C409.784 9.18882 409.432 9.16233 409.038 9.16848C408.647 9.16349 408.233 9.21763 407.796 9.3309L407.484 7.78364C407.996 7.6385 408.52 7.55326 409.055 7.52791C409.602 7.50468 410.131 7.54163 410.643 7.63877C411.367 7.77603 411.937 8.02262 412.354 8.37855C412.785 8.72546 413.074 9.14378 413.224 9.63352C413.373 10.1233 413.393 10.6576 413.283 11.2366L412.27 16.5814L410.783 16.2995L410.637 14.6972L411.643 14.5938C411.327 15.226 410.88 15.6661 410.302 15.9142C409.736 16.1643 409.085 16.2197 408.35 16.0803ZM409.102 14.5792C409.548 14.6636 409.924 14.6254 410.231 14.4645C410.55 14.3058 410.744 14.0426 410.814 13.6752C410.887 13.2855 410.804 12.964 410.564 12.7108C410.337 12.4485 410 12.2752 409.555 12.1907C409.11 12.1063 408.728 12.1434 408.409 12.3022C408.104 12.4519 407.914 12.7217 407.841 13.1114C407.771 13.4788 407.85 13.7937 408.077 14.0559C408.315 14.3203 408.657 14.4947 409.102 14.5792ZM417.08 17.7209C416.303 17.5603 415.731 17.222 415.363 16.7062C415.009 16.1815 414.927 15.4586 415.117 14.5374L416.257 9.02703L416.278 8.92714L417.033 7.12169L418.598 7.44533L417.083 14.7703C417.014 15.1033 417.047 15.3647 417.181 15.5545C417.316 15.7443 417.516 15.8667 417.782 15.9218C417.96 15.9585 418.123 15.9807 418.272 15.9884C418.421 15.996 418.554 15.9946 418.672 15.9843L418.3 17.7823C418.122 17.8033 417.936 17.811 417.74 17.8053C417.555 17.8018 417.336 17.7737 417.08 17.7209ZM414.664 10.4336L415.029 8.66892L419.973 9.69147L419.609 11.4561L414.664 10.4336ZM422.022 18.6036L420.093 18.1936L421.818 10.0789L423.747 10.4889L422.022 18.6036ZM422.106 7.49836C422.181 7.14362 422.348 6.87778 422.606 6.70083C422.877 6.51516 423.201 6.46237 423.578 6.54249C423.933 6.61789 424.196 6.79555 424.368 7.07547C424.543 7.34431 424.592 7.6561 424.517 8.01084C424.442 8.36559 424.27 8.63025 424.001 8.80484C423.732 8.97943 423.42 9.02903 423.065 8.95363C422.688 8.87351 422.413 8.69904 422.238 8.4302C422.075 8.16372 422.031 7.85311 422.106 7.49836ZM427.615 20.0608C426.786 19.8709 426.098 19.5271 425.549 19.0293C425.001 18.5314 424.622 17.9272 424.412 17.2165C424.217 16.4973 424.214 15.7234 424.404 14.8949C424.599 14.0443 424.94 13.3434 425.426 12.7922C425.927 12.2325 426.532 11.8481 427.243 11.6389C427.954 11.4297 428.723 11.4201 429.552 11.61C430.38 11.7999 431.069 12.1437 431.618 12.6416C432.166 13.1394 432.538 13.7479 432.734 14.4671C432.943 15.1778 432.95 15.9585 432.755 16.8091C432.565 17.6376 432.22 18.3317 431.72 18.8914C431.233 19.4426 430.634 19.8228 429.924 20.0319C429.213 20.2411 428.443 20.2507 427.615 20.0608ZM428.04 18.205C428.703 18.3569 429.288 18.2643 429.796 17.9271C430.306 17.5789 430.642 17.0513 430.804 16.3443C430.966 15.6373 430.892 15.0216 430.582 14.4971C430.274 13.9615 429.789 13.6178 429.127 13.4659C428.464 13.3139 427.879 13.4065 427.371 13.7437C426.864 14.0808 426.528 14.6084 426.363 15.3265C426.201 16.0335 426.274 16.6548 426.581 17.1903C426.891 17.7148 427.377 18.053 428.04 18.205ZM439.941 14.1137C440.513 14.2569 440.94 14.4633 441.223 14.7328C441.506 15.0023 441.689 15.3226 441.771 15.6938C441.856 16.0539 441.87 16.4428 441.812 16.8606C441.768 17.2702 441.692 17.6893 441.585 18.1181L440.37 22.9662L438.457 22.4869L439.713 17.4739C439.848 16.9352 439.822 16.549 439.635 16.3152C439.462 16.0733 439.211 15.911 438.881 15.8283C438.573 15.7512 438.238 15.7373 437.875 15.7866C437.526 15.8276 437.192 15.925 436.873 16.0788C436.557 16.2216 436.282 16.4097 436.048 16.6432L436.16 15.5672L436.572 15.6705L435.076 21.6399L433.164 21.1607L435.18 13.1134L436.614 13.4729L436.642 15.0397L436.078 14.9157C436.471 14.652 436.879 14.4447 437.303 14.2937C437.729 14.1318 438.162 14.0358 438.602 14.0058C439.055 13.9675 439.502 14.0035 439.941 14.1137ZM444.727 24.3399C444.136 24.1802 443.603 23.8951 443.127 23.4846C442.651 23.0742 442.3 22.5039 442.075 21.7738L443.637 21.1396C443.859 21.6222 444.094 21.991 444.342 22.2459C444.59 22.5008 444.928 22.6859 445.354 22.8013C445.661 22.8841 445.922 22.8726 446.138 22.7667C446.355 22.6609 446.494 22.4931 446.556 22.2633C446.598 22.1102 446.591 21.9616 446.536 21.8176C446.481 21.6736 446.346 21.5198 446.132 21.3563C445.932 21.1847 445.628 20.9851 445.22 20.7574C444.467 20.3307 443.925 19.8791 443.596 19.4027C443.278 18.9293 443.215 18.337 443.407 17.6259C443.529 17.1773 443.754 16.7981 444.085 16.4882C444.418 16.1674 444.833 15.9567 445.33 15.8562C445.83 15.7448 446.375 15.7689 446.966 15.9287C447.677 16.1209 448.246 16.4273 448.672 16.8478C449.098 17.2683 449.406 17.7154 449.595 18.1892L447.982 18.8801C447.852 18.6219 447.652 18.3624 447.382 18.1016C447.126 17.8328 446.779 17.6393 446.341 17.5209C446.079 17.45 445.826 17.452 445.583 17.5271C445.339 17.6022 445.185 17.7601 445.12 18.0008C445.058 18.2305 445.11 18.4501 445.276 18.6595C445.443 18.8688 445.798 19.1175 446.343 19.4056C447.254 19.8986 447.866 20.3927 448.178 20.888C448.491 21.3833 448.562 21.9428 448.394 22.5664C448.252 23.0916 447.991 23.5141 447.611 23.834C447.234 24.143 446.793 24.3408 446.288 24.4274C445.783 24.514 445.263 24.4848 444.727 24.3399Z" fill="white"/>
</svg>
