<svg width="62" height="209" viewBox="0 0 62 209" fill="none" xmlns="http://www.w3.org/2000/svg">
<path d="M122.255 158.564C63.6277 164.517 65.728 215.633 33.1417 151.309C22.5829 130.467 21.9933 70.118 33.1416 52.1584C63.8841 2.63313 71.9821 33.8351 122.255 44.8104" stroke="#AF1E2D" stroke-width="50"/>
<path d="M25.3625 53.6814L39.8653 57.44L38.48 62.7854C38.2151 63.8076 37.7737 64.6629 37.156 65.3513C36.5382 66.0396 35.8031 66.5082 34.9508 66.757C34.0947 67.02 33.1698 67.0227 32.176 66.7652C31.1822 66.5076 30.375 66.056 29.7544 65.4103C29.1302 64.7789 28.7153 64.0122 28.5096 63.1105C28.3181 62.2124 28.3548 61.2522 28.6198 60.23L29.4311 57.0994L32.0932 57.7893L31.3536 60.643C31.1402 61.4665 31.1626 62.1693 31.4208 62.7513C31.6932 63.3371 32.1915 63.7238 32.9156 63.9114C33.668 64.1064 34.2985 64.0123 34.8069 63.6289C35.3154 63.2455 35.6763 62.6421 35.8897 61.8186L36.6348 58.9436L37.0979 59.7L24.6395 56.4712L25.3625 53.6814ZM23.3645 61.3907L30.1341 59.7361L29.3393 62.8028L22.5753 64.4361L23.3645 61.3907ZM27.8838 70.344L30.6142 70.6717L29.8855 76.7441L27.1551 76.4164L27.8838 70.344ZM33.9641 71.0072L34.9462 72.0557L23.4129 70.6716L24.5409 69.7655L23.6418 77.2578L20.9114 76.9301L22.0307 67.603L36.906 69.3882L35.7866 78.7153L33.0781 78.3902L33.9641 71.0072ZM19.9807 86.4419C20.0771 84.9049 20.4905 83.5862 21.2208 82.4858C21.9648 81.4009 22.9348 80.58 24.1307 80.0231C25.3403 79.4818 26.6916 79.2579 28.1847 79.3516C29.3118 79.4223 30.3323 79.67 31.2461 80.0947C32.1737 80.5349 32.9604 81.1133 33.6061 81.8298C34.251 82.5609 34.7348 83.3995 35.0575 84.3456C35.3802 85.2917 35.5072 86.3136 35.4383 87.4115C35.3291 89.1534 34.8663 90.5572 34.05 91.6228C33.2337 92.6885 32.1397 93.4942 30.7682 94.0401L29.9701 91.3008C30.8824 90.8143 31.543 90.2385 31.9521 89.5735C32.3612 88.9084 32.5938 88.1295 32.6498 87.2366C32.7058 86.3436 32.5436 85.5326 32.1632 84.8033C31.7965 84.0896 31.2527 83.5044 30.5319 83.0478C29.8248 82.6066 28.9808 82.3553 28.0001 82.2938C27.034 82.2332 26.1653 82.3771 25.394 82.7255C24.6217 83.0885 24.0018 83.6007 23.5341 84.2621C23.0802 84.939 22.8252 85.7239 22.7692 86.6168C22.7132 87.5097 22.8466 88.3116 23.1694 89.0226C23.4922 89.7335 24.0757 90.3873 24.92 90.984L23.7859 93.6022C22.4934 92.8892 21.5087 91.953 20.8319 90.7937C20.1552 89.6344 19.8714 88.1838 19.9807 86.4419ZM25.8432 97.6897L28.5927 97.7433L28.4735 103.858L25.724 103.805L25.8432 97.6897ZM31.9593 97.7429L33.0411 98.6881L21.4273 98.4618L22.4593 97.4477L22.3122 104.992L19.5627 104.939L19.7458 95.5464L34.725 95.8384L34.5419 105.231L31.8144 105.177L31.9593 97.7429ZM19.8437 118.009L31.1904 109.048L31.598 110.358L19.6559 110.664L19.5823 107.783L34.5594 107.4L34.6252 109.973L23.5373 118.729L23.3547 117.611L34.8129 117.319L34.8866 120.2L19.9095 120.582L19.8437 118.009ZM20.3663 127.218L33.7394 126.097L33.9819 128.991L20.6088 130.112L20.3663 127.218ZM32.1789 121.702L34.9193 121.473L35.9261 133.487L33.1857 133.716L32.1789 121.702ZM22.8091 145.897L21.3362 137.042L36.1151 134.584L36.588 137.427L23.6321 139.582L24.4171 138.805L25.5219 145.445L22.8091 145.897ZM32.6027 150.024L31.9398 148.683L41.0306 148.754L42.4246 151.574L30.934 151.315L32.7077 150.733L26.7516 153.677L25.4745 151.093L31.4307 148.149L29.8715 149.165L36.6633 139.918L38.0768 142.778L32.6027 150.024Z" fill="white"/>
</svg>
